<svg width="23" height="22" viewBox="0 0 23 22" fill="none" xmlns="http://www.w3.org/2000/svg">
<g clip-path="url(#clip0_158_283)">
<path d="M0.5 6.875H4.625V8.25H0.5V6.875ZM7.375 0H8.75V4.125H7.375V0ZM8.75 15.125H7.375V11.6875L8.75 13.0625V15.125ZM15.625 8.25H13.5625L12.1875 6.875H15.625V8.25ZM4.80513 9.84637L5.77725 10.8185L1.6935 14.9023L0.721375 13.9301L4.80513 9.84637ZM14.4301 0.221375L15.4023 1.1935L11.3185 5.27725L10.3464 4.30513L14.4301 0.221375ZM1.6495 0.273625L6.41388 5.038L5.44175 6.01012L0.677375 1.24575L1.6495 0.273625ZM8.8875 5.6375L6 8.3875L19.475 22L22.5 19.1125L8.8875 5.6375ZM8.8875 7.5625L12.1875 11L11.3625 11.825L7.925 8.3875L8.8875 7.5625Z" fill="black"/>
</g>
<defs>
<clipPath id="clip0_158_283">
<rect width="22" height="22" fill="white" transform="translate(0.5)"/>
</clipPath>
</defs>
</svg>
